<svg width="23" height="28" viewBox="0 0 23 28" fill="none" xmlns="http://www.w3.org/2000/svg">
<path d="M7.4085 1.05208C7.07756 1.15145 6.93716 1.67038 6.93716 2.78552V3.83442L4.35979 3.86754C1.9128 3.90066 1.75234 3.9117 1.36122 4.14356C0.839731 4.45271 0.24804 5.2035 0.107639 5.72243C0.0474668 5.97637 0.0173808 9.49845 0.0374381 16.112L0.0675241 26.1152L0.368384 26.6562C0.558928 26.9874 0.859788 27.3186 1.16065 27.5284L1.65205 27.8597L11.3799 27.8928L21.1077 27.9149L21.6191 27.6609C22.1807 27.3738 22.6721 26.7776 22.8627 26.1593C23.0532 25.5631 23.0332 6.0647 22.8426 5.56785C22.6521 5.05997 22.1205 4.41959 21.6392 4.14356C21.2481 3.9117 21.0776 3.90066 18.6506 3.86754L16.0632 3.83442V2.7524C16.0632 1.96848 16.0231 1.62621 15.9028 1.43852C15.6922 1.09624 15.4114 0.952713 15.1105 1.04104C14.6993 1.15145 14.5589 1.60413 14.5589 2.79656V3.84546H11.5002H8.44146V2.79656C8.44146 1.60413 8.33114 1.25082 7.90994 1.08521C7.74948 1.03 7.60908 0.985836 7.59905 0.985836C7.58902 0.996876 7.50879 1.01896 7.4085 1.05208ZM6.93716 6.31864C6.93716 7.33442 7.03744 7.63252 7.41853 7.80918C7.66925 7.91959 7.76954 7.91959 8.02025 7.77606C8.37125 7.57732 8.44146 7.3565 8.44146 6.29656V5.50161H11.5002H14.5589V6.31864C14.5589 7.32337 14.6693 7.67669 15.0303 7.83126C15.3813 7.97479 15.8426 7.76501 15.973 7.4117C16.0231 7.26817 16.0632 6.77132 16.0632 6.31864V5.50161H18.5102C20.9572 5.50161 20.9673 5.50161 21.2481 5.76659L21.5289 6.03158L21.5589 8.14041L21.589 10.2492H11.5002H1.41136L1.44145 8.14041L1.47154 6.03158L1.75234 5.76659C2.03314 5.50161 2.04317 5.50161 4.49016 5.50161H6.93716V6.31864ZM21.579 18.6956C21.579 23.5316 21.5489 25.5521 21.4687 25.7508C21.1979 26.3912 21.5289 26.3691 11.5002 26.3691C1.47154 26.3691 1.80248 26.3912 1.53171 25.7508C1.45148 25.5521 1.42139 23.5316 1.42139 18.6956V11.9054H11.5002H21.579V18.6956Z" fill="#FCFCFD"/>
<path d="M6.23438 15.1625V16.101H7.38767H8.54097V15.1625V14.224H7.38767H6.23438V15.1625Z" fill="#FCFCFD"/>
<path d="M10.3477 15.1625V16.101H11.501H12.6542V15.1625V14.224H11.501H10.3477V15.1625Z" fill="#FCFCFD"/>
<path d="M14.459 15.1625V16.101H15.6123H16.7656V15.1625V14.224H15.6123H14.459V15.1625Z" fill="#FCFCFD"/>
<path d="M6.23438 19.0268V19.9653H7.38767H8.54097V19.0268V18.0883H7.38767H6.23438V19.0268Z" fill="#FCFCFD"/>
<path d="M10.3477 19.0268V19.9653H11.501H12.6542V19.0268V18.0883H11.501H10.3477V19.0268Z" fill="#FCFCFD"/>
<path d="M14.459 19.0268V19.9653H15.6123H16.7656V19.0268V18.0883H15.6123H14.459V19.0268Z" fill="#FCFCFD"/>
<path d="M6.23438 23.0016V23.9401H7.38767H8.54097V23.0016V22.0631H7.38767H6.23438V23.0016Z" fill="#FCFCFD"/>
<path d="M10.3477 23.0016V23.9401H11.501H12.6542V23.0016V22.0631H11.501H10.3477V23.0016Z" fill="#FCFCFD"/>
<path d="M14.459 23.0016V23.9401H15.6123H16.7656V23.0016V22.0631H15.6123H14.459V23.0016Z" fill="#FCFCFD"/>
</svg>
