<svg width="26" height="23" viewBox="0 0 26 23" fill="none" xmlns="http://www.w3.org/2000/svg">
<path d="M19.6236 2.3155C19.581 8.84826 19.7173 15.3746 20.0326 21.8998C20.7314 21.7105 21.4302 21.5213 22.1291 21.332C20.3688 18.918 18.5227 17.1505 15.634 16.2705C13.912 15.746 12.1191 15.4333 10.3362 15.2078C9.12922 15.0551 7.91812 14.9501 6.70136 14.9213C4.8782 14.8781 4.20944 15.4554 3.18551 13.751C2.22727 12.1558 2.26825 10.0208 4.5907 9.09414C5.31029 8.80702 6.81533 9.11177 7.6002 9.11533C9.17055 9.12245 10.6844 9.19647 12.1886 8.70159C15.5897 7.58262 18.69 5.02226 21.231 2.58333C22.2777 1.57871 20.6854 -0.0109563 19.64 0.992338C17.4537 3.09076 14.9508 5.17547 12.0981 6.30674C9.67389 7.26809 7.11848 6.69242 4.5907 6.84414C1.32978 7.03987 0.473892 8.85082 0.366133 11.9662C0.286357 14.2726 0.890648 16.7067 3.36792 17.1925C6.19499 17.7468 9.28574 17.1896 12.1984 17.7607C15.6237 18.4322 18.0664 19.5606 20.1862 22.4676C20.7874 23.2921 22.3415 23.1177 22.2826 21.8998C21.9673 15.3745 21.831 8.84823 21.8736 2.3155C21.8831 0.867391 19.6331 0.865808 19.6236 2.3155Z" fill="#FCFCFD"/>
<path d="M21.3171 9.39372C22.6156 9.38177 23.1955 10.2922 23.2832 11.4842C23.3837 12.8522 22.8959 13.7379 21.4306 13.9367C20.0024 14.1305 20.6105 16.2988 22.0288 16.1063C23.0772 15.9641 24.3453 15.365 24.9857 14.4871C25.6591 13.5638 25.6114 12.1517 25.4984 11.0629C25.2637 8.80196 23.643 7.12231 21.3171 7.14372C19.87 7.15704 19.8665 9.40707 21.3171 9.39372Z" fill="#FCFCFD"/>
<path d="M7.85762 8.14877C7.81933 10.5681 7.87333 12.9835 8.0197 15.3987C8.10689 16.8374 10.3575 16.8473 10.2697 15.3987C10.1233 12.9834 10.0693 10.5681 10.1076 8.14877C10.1305 6.70038 7.88054 6.69996 7.85762 8.14877Z" fill="#FCFCFD"/>
<path d="M4.18555 16.482C4.18555 18.1209 4.18555 19.7598 4.18555 21.3987C4.18555 22.8464 6.43555 22.8488 6.43555 21.3987C6.43555 19.7598 6.43555 18.1209 6.43555 16.482C6.43555 15.0342 4.18555 15.0318 4.18555 16.482Z" fill="#FCFCFD"/>
</svg>
