<svg width="23" height="23" viewBox="0 0 23 23" fill="none" xmlns="http://www.w3.org/2000/svg">
<path d="M1.43698 22.2816C1.33556 22.2822 1.23515 22.2613 1.14236 22.2204C1.04957 22.1794 0.966502 22.1193 0.898614 22.0439C0.830725 21.9685 0.779554 21.8797 0.748465 21.7831C0.717376 21.6866 0.707072 21.5846 0.71823 21.4837L1.36511 15.6116C1.38323 15.4482 1.4568 15.296 1.57354 15.1803L15.2873 1.47374C15.5251 1.23448 15.8079 1.0446 16.1193 0.915026C16.4308 0.785455 16.7648 0.71875 17.1021 0.71875C17.4395 0.71875 17.7735 0.785455 18.0849 0.915026C18.3964 1.0446 18.6792 1.23448 18.917 1.47374L21.562 4.0828C21.8012 4.32061 21.9911 4.60337 22.1207 4.91484C22.2503 5.2263 22.317 5.56031 22.317 5.89765C22.317 6.23499 22.2503 6.569 22.1207 6.88046C21.9911 7.19192 21.8012 7.47469 21.562 7.71249L7.81948 21.4191C7.70379 21.5358 7.55158 21.6094 7.38823 21.6275L1.51604 22.2816H1.43698ZM2.77386 16.0141L2.24917 20.7506L6.98573 20.2259L20.5126 6.69187C20.7224 6.47933 20.8401 6.1927 20.8401 5.89405C20.8401 5.59541 20.7224 5.30878 20.5126 5.09624L17.9035 2.48718C17.691 2.27737 17.4044 2.15972 17.1057 2.15972C16.8071 2.15972 16.5205 2.27737 16.3079 2.48718L2.77386 16.0141Z" fill="#101820"/>
<path d="M19.0611 9.8763C18.8726 9.8755 18.6919 9.80064 18.558 9.66786L13.3327 4.44255C13.1983 4.30434 13.1243 4.11842 13.127 3.92566C13.1297 3.73291 13.2089 3.54913 13.3471 3.41474C13.4853 3.28034 13.6712 3.20636 13.864 3.20906C14.0567 3.21175 14.2405 3.29091 14.3749 3.42911L19.5715 8.62567C19.7053 8.76034 19.7805 8.94251 19.7805 9.13239C19.7805 9.32227 19.7053 9.50444 19.5715 9.63911C19.5067 9.71094 19.4282 9.76897 19.3405 9.80972C19.2528 9.85048 19.1578 9.87312 19.0611 9.8763Z" fill="#101820"/>
<path d="M13.3275 8.65398L6.80176 15.1797L7.81822 16.1962L14.3439 9.67044L13.3275 8.65398Z" fill="#101820"/>
</svg>
