<svg width="26" height="25" viewBox="0 0 26 25" fill="none" xmlns="http://www.w3.org/2000/svg">
<path d="M3.87787 0.918509C2.13283 1.30722 0.693734 2.94986 0.365122 4.95613C0.285802 5.42008 0.251808 7.67713 0.27447 11.2884C0.308465 16.768 0.319796 16.906 0.569088 17.5831C1.079 18.9875 1.95152 19.9405 3.24331 20.5173C3.77588 20.7555 4.09316 20.7806 7.4926 20.8182C11.4133 20.8684 11.6739 20.8307 11.9119 20.2665C12.1045 19.79 12.0705 19.6019 11.7079 19.2006L11.3793 18.837H7.76455H4.14982L3.57192 18.5235C3.25464 18.3354 2.85804 17.9969 2.68807 17.7712C2.07617 16.8809 2.06484 16.7555 2.06484 12.6301V8.80566H12.943H23.8212V9.36992C23.8212 10.0972 24.0025 10.511 24.3991 10.6991C24.6597 10.8119 24.807 10.8119 25.0563 10.6865C25.6002 10.4358 25.6682 10.0847 25.6116 7.27588C25.5662 5.09406 25.5322 4.64265 25.3283 4.09092C24.8297 2.69907 23.9232 1.6834 22.6541 1.1066C22.0648 0.843273 21.9855 0.843273 13.2263 0.818195C8.36512 0.818195 4.16115 0.855812 3.87787 0.918509ZM22.5294 3.22572C23.3679 3.80252 23.7532 4.57995 23.8099 5.82133L23.8439 6.79939H12.9543H2.06484V5.98434C2.06484 4.61757 2.56342 3.66459 3.56059 3.11287L4.16115 2.78685L13.0677 2.81193L21.9742 2.84954L22.5294 3.22572Z" fill="white"/>
<path d="M18.5515 11.9906C16.1945 12.5925 14.5175 14.4483 14.0189 17.0188C13.7923 18.1975 13.8036 18.7367 14.0755 19.8903C14.5855 22.1348 16.0246 23.8151 18.0416 24.5549C18.8914 24.8684 20.5911 24.8684 21.441 24.5549C23.5713 23.7649 25.0331 21.9593 25.4863 19.5267C25.9396 17.0815 24.9424 14.4107 23.0614 13.0063C21.7356 12.0282 19.9906 11.627 18.5515 11.9906ZM21.441 14.2101C22.2569 14.6239 23.0161 15.464 23.4353 16.3919C23.7299 17.069 23.7639 17.2696 23.7639 18.3354C23.7639 19.3887 23.7299 19.6144 23.4467 20.2414C23.2654 20.6427 22.9028 21.2195 22.6195 21.5204C22.3475 21.8339 21.8263 22.2351 21.4637 22.4358C20.8971 22.7492 20.6931 22.7869 19.7413 22.7869C18.8121 22.7869 18.5741 22.7367 18.0189 22.4483C17.2144 22.0345 16.3985 21.1191 16.0132 20.2163C15.7639 19.627 15.7186 19.3511 15.7186 18.3354C15.7186 17.2696 15.7526 17.069 16.0472 16.3919C16.3985 15.6144 17.1577 14.6991 17.7469 14.3605C18.8461 13.721 20.3532 13.6709 21.441 14.2101Z" fill="white"/>
<path d="M17.9639 15.9781C17.3406 16.3041 17.386 17.2822 18.0545 17.859C18.2358 18.022 18.3831 18.2351 18.3831 18.3355C18.3831 18.4358 18.2358 18.6489 18.0545 18.8119C17.352 19.4264 17.352 20.4044 18.0545 20.7179C18.4738 20.9185 18.9497 20.7179 19.3123 20.2038C19.6409 19.7524 19.7996 19.7524 20.1395 20.2038C20.7401 20.9812 21.6126 20.9812 21.8959 20.2163C22.0659 19.7524 21.9639 19.4264 21.4766 18.8245L21.08 18.3355L21.4766 17.8464C21.6919 17.5831 21.9072 17.232 21.9525 17.0815C22.1338 16.442 21.454 15.6897 20.8761 15.8903C20.7514 15.9405 20.4568 16.1662 20.2188 16.4044C19.9922 16.6427 19.7656 16.8308 19.7316 16.8308C19.6976 16.8308 19.5276 16.6677 19.335 16.4797C18.7571 15.8402 18.4285 15.7273 17.9639 15.9781Z" fill="white"/>
</svg>
