<svg width="30" height="30" viewBox="0 0 30 30" fill="none" xmlns="http://www.w3.org/2000/svg">
<path d="M24.3281 23.6719H5.67187C4.54687 23.6719 3.65625 22.7813 3.65625 21.6563V8.29688C3.65625 7.17188 4.54687 6.28127 5.67187 6.28127H24.3281C25.4531 6.28127 26.3437 7.17188 26.3437 8.29688V21.6563C26.3437 22.7813 25.4531 23.6719 24.3281 23.6719ZM5.67187 7.64062C5.29687 7.64062 5.01562 7.92188 5.01562 8.29688V21.6563C5.01562 22.0313 5.29687 22.3125 5.67187 22.3125H24.3281C24.7031 22.3125 24.9844 22.0313 24.9844 21.6563V8.29688C24.9844 7.92188 24.7031 7.64062 24.3281 7.64062H5.67187Z" fill="white"/>
<path d="M4.3125 9.00001H25.6875V12.9844H4.3125V9.00001Z" fill="white"/>
<path d="M6.32812 15.6562H6.98438V17.0156H6.32812V15.6562Z" fill="white"/>
<path d="M7.64062 15.6562H8.34375V17.0156H7.64062V15.6562Z" fill="white"/>
<path d="M9 15.6562H9.65625V17.0156H9V15.6562Z" fill="white"/>
<path d="M11.0156 15.6562H11.6719V17.0156H11.0156V15.6562Z" fill="white"/>
<path d="M12.3281 15.6562H12.9844V17.0156H12.3281V15.6562Z" fill="white"/>
<path d="M13.6875 15.6562H14.3438V17.0156H13.6875V15.6562Z" fill="white"/>
<path d="M15.6562 15.6562H16.3125V17.0156H15.6562V15.6562Z" fill="white"/>
<path d="M17.0156 15.6562H17.6719V17.0156H17.0156V15.6562Z" fill="white"/>
<path d="M18.3281 15.6562H18.9844V17.0156H18.3281V15.6562Z" fill="white"/>
<path d="M20.3438 15.6562H21V17.0156H20.3438V15.6562Z" fill="white"/>
<path d="M21.6562 15.6562H22.3594V17.0156H21.6562V15.6562Z" fill="white"/>
<path d="M23.0156 15.6562H23.6719V17.0156H23.0156V15.6562Z" fill="white"/>
</svg>
