<svg width="30" height="30" viewBox="0 0 30 30" fill="none" xmlns="http://www.w3.org/2000/svg">
<path d="M24 13.328V24H6V10H16.672L22.672 4H6C4.895 4 4 4.895 4 6V24C4 25.105 4.895 26 6 26H24C25.105 26 26 25.105 26 24V11.329L24 13.328Z" fill="white"/>
<path d="M28.957 5.543L29.482 5.018C30.172 4.328 30.172 3.208 29.482 2.518C28.792 1.828 27.672 1.828 26.982 2.518L26.457 3.043L28.957 5.543Z" fill="white"/>
<path d="M25.043 4.457L14.475 15.025L14 18L16.975 17.525L27.543 6.957L25.043 4.457Z" fill="white"/>
</svg>
