<svg width="24" height="18" viewBox="0 0 24 18" fill="none" xmlns="http://www.w3.org/2000/svg">
<path d="M21.3281 17.6719H2.67187C1.54687 17.6719 0.65625 16.7813 0.65625 15.6563V2.29688C0.65625 1.17188 1.54687 0.281265 2.67187 0.281265H21.3281C22.4531 0.281265 23.3437 1.17188 23.3437 2.29688V15.6563C23.3437 16.7813 22.4531 17.6719 21.3281 17.6719ZM2.67187 1.64062C2.29687 1.64062 2.01562 1.92188 2.01562 2.29688V15.6563C2.01562 16.0313 2.29687 16.3125 2.67187 16.3125H21.3281C21.7031 16.3125 21.9844 16.0313 21.9844 15.6563V2.29688C21.9844 1.92188 21.7031 1.64062 21.3281 1.64062H2.67187Z" fill="white"/>
<path d="M1.3125 3.00001H22.6875V6.98438H1.3125V3.00001Z" fill="white"/>
<path d="M3.32812 9.65625H3.98438V11.0156H3.32812V9.65625Z" fill="white"/>
<path d="M4.64062 9.65625H5.34375V11.0156H4.64062V9.65625Z" fill="white"/>
<path d="M6 9.65625H6.65625V11.0156H6V9.65625Z" fill="white"/>
<path d="M8.01562 9.65625H8.67188V11.0156H8.01562V9.65625Z" fill="white"/>
<path d="M9.32812 9.65625H9.98437V11.0156H9.32812V9.65625Z" fill="white"/>
<path d="M10.6875 9.65625H11.3438V11.0156H10.6875V9.65625Z" fill="white"/>
<path d="M12.6562 9.65625H13.3125V11.0156H12.6562V9.65625Z" fill="white"/>
<path d="M14.0156 9.65625H14.6719V11.0156H14.0156V9.65625Z" fill="white"/>
<path d="M15.3281 9.65625H15.9844V11.0156H15.3281V9.65625Z" fill="white"/>
<path d="M17.3438 9.65625H18V11.0156H17.3438V9.65625Z" fill="white"/>
<path d="M18.6562 9.65625H19.3594V11.0156H18.6562V9.65625Z" fill="white"/>
<path d="M20.0156 9.65625H20.6719V11.0156H20.0156V9.65625Z" fill="white"/>
</svg>
