<svg width="30" height="30" viewBox="0 0 30 30" fill="none" xmlns="http://www.w3.org/2000/svg">
<path d="M15 14.375C17.7614 14.375 20 12.1364 20 9.375C20 6.61358 17.7614 4.375 15 4.375C12.2386 4.375 10 6.61358 10 9.375C10 12.1364 12.2386 14.375 15 14.375Z" fill="white"/>
<path d="M25 25.625V20.625C25 19.875 24.625 19.125 24 18.625C22.625 17.5 20.875 16.75 19.125 16.25C17.875 15.875 16.5 15.625 15 15.625C13.625 15.625 12.25 15.875 10.875 16.25C9.125 16.75 7.375 17.625 6 18.625C5.375 19.125 5 19.875 5 20.625V25.625H25Z" fill="white"/>
</svg>
