<svg width="40" height="40" viewBox="0 0 40 40" fill="none" xmlns="http://www.w3.org/2000/svg">
<path d="M13.9871 15.5C17.4121 15.625 20.8329 15.625 24.2496 15.5C26.2621 15.4375 26.2746 12.3125 24.2496 12.375C20.8413 12.4833 17.4204 12.4833 13.9871 12.375C11.9746 12.3 11.9871 15.425 13.9871 15.5V15.5Z" fill="white"/>
<path d="M16.9492 20.9875H23.0742C23.4886 20.9875 23.886 20.8229 24.1791 20.5298C24.4721 20.2368 24.6367 19.8394 24.6367 19.425C24.6367 19.0106 24.4721 18.6132 24.1791 18.3201C23.886 18.0271 23.4886 17.8625 23.0742 17.8625H16.9492C16.5348 17.8625 16.1374 18.0271 15.8444 18.3201C15.5513 18.6132 15.3867 19.0106 15.3867 19.425C15.3867 19.8394 15.5513 20.2368 15.8444 20.5298C16.1374 20.8229 16.5348 20.9875 16.9492 20.9875Z" fill="white"/>
<path d="M20 26.9375L23.35 27.025C23.7644 27.025 24.1618 26.8604 24.4549 26.5674C24.7479 26.2743 24.9125 25.8769 24.9125 25.4625C24.9125 25.0481 24.7479 24.6507 24.4549 24.3576C24.1618 24.0646 23.7644 23.9 23.35 23.9L20 23.8125C19.5856 23.8125 19.1882 23.9771 18.8951 24.2701C18.6021 24.5632 18.4375 24.9606 18.4375 25.375C18.4375 25.7894 18.6021 26.1868 18.8951 26.4799C19.1882 26.7729 19.5856 26.9375 20 26.9375V26.9375Z" fill="white"/>
</svg>
