<svg width="32" height="32" viewBox="0 0 32 32" fill="none" xmlns="http://www.w3.org/2000/svg">
<path fill-rule="evenodd" clip-rule="evenodd" d="M22.6341 22C21.7052 22.0011 20.7887 21.7874 19.956 21.3757C19.1234 20.964 18.3971 20.3654 17.8341 19.6267L14.1914 16L17.8374 12.3733C18.4532 11.5526 19.2687 10.9031 20.2064 10.4864C21.144 10.0697 22.1727 9.8998 23.1945 9.99277C24.2163 10.0857 25.1974 10.4385 26.0445 11.0176C26.8915 11.5966 27.5764 12.3827 28.034 13.301C28.4916 14.2194 28.7067 15.2396 28.6589 16.2645C28.611 17.2894 28.3018 18.2851 27.7607 19.1569C27.2195 20.0286 26.4644 20.7475 25.5671 21.2451C24.6698 21.7428 23.6601 22.0026 22.6341 22ZM22.5674 12.4C22.0023 12.398 21.4442 12.5253 20.9357 12.7721C20.4273 13.0189 19.9821 13.3787 19.6341 13.824L17.4074 16L19.6354 18.176C19.9834 18.6213 20.4286 18.9811 20.937 19.2279C21.4455 19.4748 22.0036 19.602 22.5687 19.6C23.0415 19.5999 23.5096 19.5067 23.9464 19.3257C24.3831 19.1447 24.7799 18.8795 25.1141 18.5451C25.4484 18.2108 25.7135 17.8139 25.8943 17.377C26.0751 16.9402 26.1682 16.4721 26.1681 15.9993C26.168 15.5266 26.0748 15.0585 25.8938 14.6217C25.7128 14.185 25.4475 13.7882 25.1132 13.4539C24.7788 13.1197 24.3819 12.8546 23.9451 12.6738C23.5083 12.4929 23.0402 12.3999 22.5674 12.4Z" fill="white"/>
<path fill-rule="evenodd" clip-rule="evenodd" d="M14.1627 19.6267C13.4032 20.6276 12.3487 21.3649 11.1479 21.7345C9.94704 22.1041 8.66046 22.0874 7.46961 21.6868C6.27875 21.2862 5.24372 20.5218 4.51048 19.5015C3.77725 18.4812 3.38281 17.2564 3.38281 16C3.38281 14.7436 3.77725 13.5188 4.51048 12.4985C5.24372 11.4782 6.27875 10.7138 7.46961 10.3132C8.66046 9.91257 9.94704 9.89588 11.1479 10.2655C12.3487 10.6351 13.4032 11.3724 14.1627 12.3733L17.8087 16L14.1627 19.6267ZM12.3627 13.8267C12.0147 13.3814 11.5694 13.0216 11.061 12.7748C10.5526 12.528 9.99451 12.4007 9.42936 12.4027C8.47458 12.4027 7.55891 12.782 6.88378 13.4571C6.20865 14.1322 5.82936 15.0479 5.82936 16.0027C5.82936 16.9574 6.20865 17.8731 6.88378 18.5483C7.55891 19.2234 8.47458 19.6027 9.42936 19.6027C9.99451 19.6047 10.5526 19.4774 11.0611 19.2306C11.5695 18.9838 12.0147 18.624 12.3627 18.1787L14.5927 16L12.3627 13.8267Z" fill="white"/>
</svg>
