<svg width="29" height="29" viewBox="0 0 29 29" fill="none" xmlns="http://www.w3.org/2000/svg">
<g clip-path="url(#clip0)">
<path d="M28.4201 16.2133V12.7333L24.2783 12.0564C24.033 11.0757 23.6478 10.1535 23.1403 9.30899L25.5543 5.86843L23.0934 3.40865L19.6969 5.85045C18.8501 5.33773 17.9221 4.94681 16.9343 4.70089L16.2122 0.579407H12.7322L12.0618 4.68755C11.0734 4.92999 10.1402 5.31569 9.2911 5.82609L5.90448 3.40633L3.44354 5.86611L5.8256 9.27303C5.31056 10.1256 4.91906 11.0577 4.67024 12.0524L0.580078 12.7333V16.2133L4.6656 16.9377C4.9121 17.9301 5.30418 18.8622 5.82096 19.7159L3.40642 23.0933L5.8662 25.5554L9.27718 23.1663C10.1286 23.6779 11.0595 24.0665 12.0478 24.3107L12.7322 28.4211H16.2122L16.9436 24.3002C17.9267 24.0508 18.8559 23.6593 19.6992 23.146L23.134 25.5559L25.5943 23.0938L23.1427 19.6892C23.6502 18.8448 24.0353 17.9214 24.2783 16.9406L28.4201 16.2133ZM14.5001 19.14C11.9376 19.14 9.86008 17.0624 9.86008 14.5C9.86008 11.9375 11.9376 9.85999 14.5001 9.85999C17.0625 9.85999 19.1401 11.9375 19.1401 14.5C19.1401 17.0624 17.0625 19.14 14.5001 19.14Z" stroke="#FCFCFD" stroke-width="2" stroke-miterlimit="10" stroke-linecap="round"/>
</g>
<defs>
<clipPath id="clip0">
<rect width="29" height="29" fill="white"/>
</clipPath>
</defs>
</svg>
